<?xml version="1.0" encoding="UTF-8" standalone="no"?>
<!DOCTYPE svg PUBLIC "-//W3C//DTD SVG 1.1//EN"
 "http://www.w3.org/Graphics/SVG/1.1/DTD/svg11.dtd">
<!-- Generated by graphviz version 11.0.0 (20240519.1550)
 -->
<!-- Title: snakemake_dag Pages: 1 -->
<svg width="2327pt" height="332pt"
 viewBox="0.00 0.00 2326.50 332.00" xmlns="http://www.w3.org/2000/svg" xmlns:xlink="http://www.w3.org/1999/xlink">
<g id="graph0" class="graph" transform="scale(1 1) rotate(0) translate(4 328)">
<title>snakemake_dag</title>
<polygon fill="white" stroke="none" points="-4,4 -4,-328 2322.5,-328 2322.5,4 -4,4"/>
<!-- 0 -->
<g id="node1" class="node">
<title>0</title>
<path fill="none" stroke="#ced856" stroke-width="2" d="M1158.88,-36C1158.88,-36 1128.88,-36 1128.88,-36 1122.88,-36 1116.88,-30 1116.88,-24 1116.88,-24 1116.88,-12 1116.88,-12 1116.88,-6 1122.88,0 1128.88,0 1128.88,0 1158.88,0 1158.88,0 1164.88,0 1170.88,-6 1170.88,-12 1170.88,-12 1170.88,-24 1170.88,-24 1170.88,-30 1164.88,-36 1158.88,-36"/>
<text text-anchor="middle" x="1143.88" y="-15.62" font-family="sans" font-size="10.00">all</text>
</g>
<!-- 1 -->
<g id="node2" class="node">
<title>1</title>
<path fill="none" stroke="#bed856" stroke-width="2" d="M247.62,-108C247.62,-108 122.12,-108 122.12,-108 116.12,-108 110.12,-102 110.12,-96 110.12,-96 110.12,-84 110.12,-84 110.12,-78 116.12,-72 122.12,-72 122.12,-72 247.62,-72 247.62,-72 253.62,-72 259.62,-78 259.62,-84 259.62,-84 259.62,-96 259.62,-96 259.62,-102 253.62,-108 247.62,-108"/>
<text text-anchor="middle" x="184.88" y="-87.62" font-family="sans" font-size="10.00">sampled_count_plot_variable</text>
</g>
<!-- 1&#45;&gt;0 -->
<g id="edge13" class="edge">
<title>1&#45;&gt;0</title>
<path fill="none" stroke="grey" stroke-width="2" d="M260.35,-73.21C263.22,-72.77 266.07,-72.37 268.88,-72 588.5,-30.18 978.21,-21.28 1103.23,-19.45"/>
<polygon fill="grey" stroke="grey" stroke-width="2" points="1103.18,-22.96 1113.13,-19.32 1103.08,-15.96 1103.18,-22.96"/>
</g>
<!-- 2 -->
<g id="node3" class="node">
<title>2</title>
<path fill="none" stroke="#d85656" stroke-width="2" d="M358.38,-180C358.38,-180 267.38,-180 267.38,-180 261.38,-180 255.38,-174 255.38,-168 255.38,-168 255.38,-156 255.38,-156 255.38,-150 261.38,-144 267.38,-144 267.38,-144 358.38,-144 358.38,-144 364.38,-144 370.38,-150 370.38,-156 370.38,-156 370.38,-168 370.38,-168 370.38,-174 364.38,-180 358.38,-180"/>
<text text-anchor="middle" x="312.88" y="-159.62" font-family="sans" font-size="10.00">estimate_aggregated</text>
</g>
<!-- 2&#45;&gt;1 -->
<g id="edge17" class="edge">
<title>2&#45;&gt;1</title>
<path fill="none" stroke="grey" stroke-width="2" d="M280.24,-143.15C264.6,-134.6 245.63,-124.22 228.74,-114.99"/>
<polygon fill="grey" stroke="grey" stroke-width="2" points="230.56,-111.99 220.1,-110.26 227.2,-118.13 230.56,-111.99"/>
</g>
<!-- 8 -->
<g id="node9" class="node">
<title>8</title>
<path fill="none" stroke="#56a2d8" stroke-width="2" d="M330.25,-108C330.25,-108 289.5,-108 289.5,-108 283.5,-108 277.5,-102 277.5,-96 277.5,-96 277.5,-84 277.5,-84 277.5,-78 283.5,-72 289.5,-72 289.5,-72 330.25,-72 330.25,-72 336.25,-72 342.25,-78 342.25,-84 342.25,-84 342.25,-96 342.25,-96 342.25,-102 336.25,-108 330.25,-108"/>
<text text-anchor="middle" x="309.88" y="-87.62" font-family="sans" font-size="10.00">count_plot</text>
</g>
<!-- 2&#45;&gt;8 -->
<g id="edge25" class="edge">
<title>2&#45;&gt;8</title>
<path fill="none" stroke="grey" stroke-width="2" d="M312.12,-143.34C311.84,-136.75 311.51,-129.08 311.19,-121.67"/>
<polygon fill="grey" stroke="grey" stroke-width="2" points="314.7,-121.77 310.77,-111.93 307.7,-122.07 314.7,-121.77"/>
</g>
<!-- 16 -->
<g id="node17" class="node">
<title>16</title>
<path fill="none" stroke="#5673d8" stroke-width="2" d="M79.75,-108C79.75,-108 12,-108 12,-108 6,-108 0,-102 0,-96 0,-96 0,-84 0,-84 0,-78 6,-72 12,-72 12,-72 79.75,-72 79.75,-72 85.75,-72 91.75,-78 91.75,-84 91.75,-84 91.75,-96 91.75,-96 91.75,-102 85.75,-108 79.75,-108"/>
<text text-anchor="middle" x="45.88" y="-87.62" font-family="sans" font-size="10.00">cycle_count_plot</text>
</g>
<!-- 2&#45;&gt;16 -->
<g id="edge33" class="edge">
<title>2&#45;&gt;16</title>
<path fill="none" stroke="grey" stroke-width="2" d="M254.61,-147.34C214.81,-137.81 160.61,-124.43 104.91,-109.06"/>
<polygon fill="grey" stroke="grey" stroke-width="2" points="106.12,-105.76 95.55,-106.45 104.24,-112.5 106.12,-105.76"/>
</g>
<!-- 3 -->
<g id="node4" class="node">
<title>3</title>
<path fill="none" stroke="#d87556" stroke-width="2" d="M598.88,-252C598.88,-252 516.88,-252 516.88,-252 510.88,-252 504.88,-246 504.88,-240 504.88,-240 504.88,-228 504.88,-228 504.88,-222 510.88,-216 516.88,-216 516.88,-216 598.88,-216 598.88,-216 604.88,-216 610.88,-222 610.88,-228 610.88,-228 610.88,-240 610.88,-240 610.88,-246 604.88,-252 598.88,-252"/>
<text text-anchor="middle" x="557.88" y="-231.62" font-family="sans" font-size="10.00">estimate_count_full</text>
</g>
<!-- 3&#45;&gt;2 -->
<g id="edge19" class="edge">
<title>3&#45;&gt;2</title>
<path fill="none" stroke="grey" stroke-width="2" d="M504.11,-217.64C468.65,-207.51 421.82,-194.13 383.38,-183.15"/>
<polygon fill="grey" stroke="grey" stroke-width="2" points="384.71,-179.88 374.13,-180.5 382.79,-186.62 384.71,-179.88"/>
</g>
<!-- 4 -->
<g id="node5" class="node">
<title>4</title>
<path fill="none" stroke="#d8a456" stroke-width="2" d="M846,-324C846,-324 809.75,-324 809.75,-324 803.75,-324 797.75,-318 797.75,-312 797.75,-312 797.75,-300 797.75,-300 797.75,-294 803.75,-288 809.75,-288 809.75,-288 846,-288 846,-288 852,-288 858,-294 858,-300 858,-300 858,-312 858,-312 858,-318 852,-324 846,-324"/>
<text text-anchor="middle" x="827.88" y="-303.62" font-family="sans" font-size="10.00">cythonize</text>
</g>
<!-- 4&#45;&gt;3 -->
<g id="edge21" class="edge">
<title>4&#45;&gt;3</title>
<path fill="none" stroke="grey" stroke-width="2" d="M796.9,-296.97C755.01,-286.11 679.2,-266.46 624.17,-252.19"/>
<polygon fill="grey" stroke="grey" stroke-width="2" points="625.2,-248.84 614.64,-249.72 623.44,-255.62 625.2,-248.84"/>
</g>
<!-- 6 -->
<g id="node7" class="node">
<title>6</title>
<path fill="none" stroke="#afd856" stroke-width="2" d="M896.25,-180C896.25,-180 819.5,-180 819.5,-180 813.5,-180 807.5,-174 807.5,-168 807.5,-168 807.5,-156 807.5,-156 807.5,-150 813.5,-144 819.5,-144 819.5,-144 896.25,-144 896.25,-144 902.25,-144 908.25,-150 908.25,-156 908.25,-156 908.25,-168 908.25,-168 908.25,-174 902.25,-180 896.25,-180"/>
<text text-anchor="middle" x="857.88" y="-159.62" font-family="sans" font-size="10.00">estimation_exp_er</text>
</g>
<!-- 4&#45;&gt;6 -->
<g id="edge23" class="edge">
<title>4&#45;&gt;6</title>
<path fill="none" stroke="grey" stroke-width="2" d="M831.67,-287.02C836.66,-263.44 845.47,-221.73 851.48,-193.25"/>
<polygon fill="grey" stroke="grey" stroke-width="2" points="854.84,-194.31 853.48,-183.8 847.99,-192.86 854.84,-194.31"/>
</g>
<!-- 9 -->
<g id="node10" class="node">
<title>9</title>
<path fill="none" stroke="#d8c356" stroke-width="2" d="M724.5,-252C724.5,-252 661.25,-252 661.25,-252 655.25,-252 649.25,-246 649.25,-240 649.25,-240 649.25,-228 649.25,-228 649.25,-222 655.25,-216 661.25,-216 661.25,-216 724.5,-216 724.5,-216 730.5,-216 736.5,-222 736.5,-228 736.5,-228 736.5,-240 736.5,-240 736.5,-246 730.5,-252 724.5,-252"/>
<text text-anchor="middle" x="692.88" y="-231.62" font-family="sans" font-size="10.00">estimate_count</text>
</g>
<!-- 4&#45;&gt;9 -->
<g id="edge26" class="edge">
<title>4&#45;&gt;9</title>
<path fill="none" stroke="grey" stroke-width="2" d="M796.9,-288.94C779.76,-280.05 758.11,-268.82 739,-258.92"/>
<polygon fill="grey" stroke="grey" stroke-width="2" points="740.68,-255.84 730.19,-254.35 737.46,-262.06 740.68,-255.84"/>
</g>
<!-- 11 -->
<g id="node12" class="node">
<title>11</title>
<path fill="none" stroke="#d88556" stroke-width="2" d="M810.88,-252C810.88,-252 776.88,-252 776.88,-252 770.88,-252 764.88,-246 764.88,-240 764.88,-240 764.88,-228 764.88,-228 764.88,-222 770.88,-216 776.88,-216 776.88,-216 810.88,-216 810.88,-216 816.88,-216 822.88,-222 822.88,-228 822.88,-228 822.88,-240 822.88,-240 822.88,-246 816.88,-252 810.88,-252"/>
<text text-anchor="middle" x="793.88" y="-231.62" font-family="sans" font-size="10.00">time_exp</text>
</g>
<!-- 4&#45;&gt;11 -->
<g id="edge28" class="edge">
<title>4&#45;&gt;11</title>
<path fill="none" stroke="grey" stroke-width="2" d="M819.3,-287.34C815.94,-280.43 812,-272.31 808.23,-264.56"/>
<polygon fill="grey" stroke="grey" stroke-width="2" points="811.41,-263.09 803.89,-255.62 805.11,-266.15 811.41,-263.09"/>
</g>
<!-- 13 -->
<g id="node14" class="node">
<title>13</title>
<path fill="none" stroke="#9fd856" stroke-width="2" d="M2208.38,-180C2208.38,-180 2129.38,-180 2129.38,-180 2123.38,-180 2117.38,-174 2117.38,-168 2117.38,-168 2117.38,-156 2117.38,-156 2117.38,-150 2123.38,-144 2129.38,-144 2129.38,-144 2208.38,-144 2208.38,-144 2214.38,-144 2220.38,-150 2220.38,-156 2220.38,-156 2220.38,-168 2220.38,-168 2220.38,-174 2214.38,-180 2208.38,-180"/>
<text text-anchor="middle" x="2168.88" y="-159.62" font-family="sans" font-size="10.00">simulate_realworld</text>
</g>
<!-- 4&#45;&gt;13 -->
<g id="edge30" class="edge">
<title>4&#45;&gt;13</title>
<path fill="none" stroke="grey" stroke-width="2" d="M858.99,-302.33C944.67,-294.94 1191.23,-273.33 1395.88,-252 1658.54,-224.63 1970.81,-187.16 2103.75,-170.98"/>
<polygon fill="grey" stroke="grey" stroke-width="2" points="2103.92,-174.48 2113.43,-169.8 2103.08,-167.54 2103.92,-174.48"/>
</g>
<!-- 21 -->
<g id="node22" class="node">
<title>21</title>
<path fill="none" stroke="#56d87b" stroke-width="2" d="M435.5,-252C435.5,-252 348.25,-252 348.25,-252 342.25,-252 336.25,-246 336.25,-240 336.25,-240 336.25,-228 336.25,-228 336.25,-222 342.25,-216 348.25,-216 348.25,-216 435.5,-216 435.5,-216 441.5,-216 447.5,-222 447.5,-228 447.5,-228 447.5,-240 447.5,-240 447.5,-246 441.5,-252 435.5,-252"/>
<text text-anchor="middle" x="391.88" y="-231.62" font-family="sans" font-size="10.00">estimate_count_sbm</text>
</g>
<!-- 4&#45;&gt;21 -->
<g id="edge38" class="edge">
<title>4&#45;&gt;21</title>
<path fill="none" stroke="grey" stroke-width="2" d="M797.2,-300.14C738.63,-290.86 606.8,-269.92 495.88,-252 484.53,-250.17 472.5,-248.21 460.8,-246.3"/>
<polygon fill="grey" stroke="grey" stroke-width="2" points="461.69,-242.9 451.26,-244.75 460.57,-249.81 461.69,-242.9"/>
</g>
<!-- 23 -->
<g id="node24" class="node">
<title>23</title>
<path fill="none" stroke="#56d86b" stroke-width="2" d="M1565.75,-180C1565.75,-180 1480,-180 1480,-180 1474,-180 1468,-174 1468,-168 1468,-168 1468,-156 1468,-156 1468,-150 1474,-144 1480,-144 1480,-144 1565.75,-144 1565.75,-144 1571.75,-144 1577.75,-150 1577.75,-156 1577.75,-156 1577.75,-168 1577.75,-168 1577.75,-174 1571.75,-180 1565.75,-180"/>
<text text-anchor="middle" x="1522.88" y="-159.62" font-family="sans" font-size="10.00">estimation_exp_sbm</text>
</g>
<!-- 4&#45;&gt;23 -->
<g id="edge40" class="edge">
<title>4&#45;&gt;23</title>
<path fill="none" stroke="grey" stroke-width="2" d="M858.64,-298.72C963.29,-277.33 1307.24,-207.06 1454.73,-176.92"/>
<polygon fill="grey" stroke="grey" stroke-width="2" points="1455.05,-180.43 1464.15,-175 1453.65,-173.57 1455.05,-180.43"/>
</g>
<!-- 26 -->
<g id="node27" class="node">
<title>26</title>
<path fill="none" stroke="#56c1d8" stroke-width="2" d="M1966.62,-180C1966.62,-180 1907.12,-180 1907.12,-180 1901.12,-180 1895.12,-174 1895.12,-168 1895.12,-168 1895.12,-156 1895.12,-156 1895.12,-150 1901.12,-144 1907.12,-144 1907.12,-144 1966.62,-144 1966.62,-144 1972.62,-144 1978.62,-150 1978.62,-156 1978.62,-156 1978.62,-168 1978.62,-168 1978.62,-174 1972.62,-180 1966.62,-180"/>
<text text-anchor="middle" x="1936.88" y="-159.62" font-family="sans" font-size="10.00">homology_exp</text>
</g>
<!-- 4&#45;&gt;26 -->
<g id="edge43" class="edge">
<title>4&#45;&gt;26</title>
<path fill="none" stroke="grey" stroke-width="2" d="M858.99,-301.02C1011.74,-281.46 1683.01,-195.51 1881.44,-170.1"/>
<polygon fill="grey" stroke="grey" stroke-width="2" points="1881.88,-173.57 1891.36,-168.83 1880.99,-166.63 1881.88,-173.57"/>
</g>
<!-- 5 -->
<g id="node6" class="node">
<title>5</title>
<path fill="none" stroke="#56d88a" stroke-width="2" d="M1261,-108C1261,-108 1182.75,-108 1182.75,-108 1176.75,-108 1170.75,-102 1170.75,-96 1170.75,-96 1170.75,-84 1170.75,-84 1170.75,-78 1176.75,-72 1182.75,-72 1182.75,-72 1261,-72 1261,-72 1267,-72 1273,-78 1273,-84 1273,-84 1273,-96 1273,-96 1273,-102 1267,-108 1261,-108"/>
<text text-anchor="middle" x="1221.88" y="-87.62" font-family="sans" font-size="10.00">estimation_er_plot</text>
</g>
<!-- 5&#45;&gt;0 -->
<g id="edge1" class="edge">
<title>5&#45;&gt;0</title>
<path fill="none" stroke="grey" stroke-width="2" d="M1202.19,-71.34C1193.48,-63.52 1183.06,-54.16 1173.44,-45.53"/>
<polygon fill="grey" stroke="grey" stroke-width="2" points="1175.86,-43 1166.08,-38.92 1171.18,-48.21 1175.86,-43"/>
</g>
<!-- 6&#45;&gt;5 -->
<g id="edge22" class="edge">
<title>6&#45;&gt;5</title>
<path fill="none" stroke="grey" stroke-width="2" d="M909.11,-153.62C967.01,-144.92 1064.29,-129.27 1157.52,-108.63"/>
<polygon fill="grey" stroke="grey" stroke-width="2" points="1158.1,-112.09 1167.1,-106.48 1156.57,-105.25 1158.1,-112.09"/>
</g>
<!-- 7 -->
<g id="node8" class="node">
<title>7</title>
<path fill="none" stroke="#56d8a9" stroke-width="2" d="M1418.38,-108C1418.38,-108 1303.38,-108 1303.38,-108 1297.38,-108 1291.38,-102 1291.38,-96 1291.38,-96 1291.38,-84 1291.38,-84 1291.38,-78 1297.38,-72 1303.38,-72 1303.38,-72 1418.38,-72 1418.38,-72 1424.38,-72 1430.38,-78 1430.38,-84 1430.38,-84 1430.38,-96 1430.38,-96 1430.38,-102 1424.38,-108 1418.38,-108"/>
<text text-anchor="middle" x="1360.88" y="-87.62" font-family="sans" font-size="10.00">estimation_er_approx_plot</text>
</g>
<!-- 6&#45;&gt;7 -->
<g id="edge24" class="edge">
<title>6&#45;&gt;7</title>
<path fill="none" stroke="grey" stroke-width="2" d="M908.99,-156.07C986.54,-148.28 1138.78,-131.73 1278.14,-108.55"/>
<polygon fill="grey" stroke="grey" stroke-width="2" points="1278.46,-112.04 1287.74,-106.93 1277.3,-105.14 1278.46,-112.04"/>
</g>
<!-- 17 -->
<g id="node18" class="node">
<title>17</title>
<path fill="none" stroke="#56d89a" stroke-width="2" d="M515.5,-108C515.5,-108 410.25,-108 410.25,-108 404.25,-108 398.25,-102 398.25,-96 398.25,-96 398.25,-84 398.25,-84 398.25,-78 404.25,-72 410.25,-72 410.25,-72 515.5,-72 515.5,-72 521.5,-72 527.5,-78 527.5,-84 527.5,-84 527.5,-96 527.5,-96 527.5,-102 521.5,-108 515.5,-108"/>
<text text-anchor="middle" x="462.88" y="-87.62" font-family="sans" font-size="10.00">estimation_er_inacc_plot</text>
</g>
<!-- 6&#45;&gt;17 -->
<g id="edge34" class="edge">
<title>6&#45;&gt;17</title>
<path fill="none" stroke="grey" stroke-width="2" d="M806.55,-153.53C745.63,-144.45 640.69,-128.1 540.96,-108.74"/>
<polygon fill="grey" stroke="grey" stroke-width="2" points="541.65,-105.31 531.17,-106.82 540.31,-112.18 541.65,-105.31"/>
</g>
<!-- 18 -->
<g id="node19" class="node">
<title>18</title>
<path fill="none" stroke="#d8b456" stroke-width="2" d="M724.25,-108C724.25,-108 557.5,-108 557.5,-108 551.5,-108 545.5,-102 545.5,-96 545.5,-96 545.5,-84 545.5,-84 545.5,-78 551.5,-72 557.5,-72 557.5,-72 724.25,-72 724.25,-72 730.25,-72 736.25,-78 736.25,-84 736.25,-84 736.25,-96 736.25,-96 736.25,-102 730.25,-108 724.25,-108"/>
<text text-anchor="middle" x="640.88" y="-87.62" font-family="sans" font-size="10.00">estimation_er_approx_inaccurate_plot</text>
</g>
<!-- 6&#45;&gt;18 -->
<g id="edge35" class="edge">
<title>6&#45;&gt;18</title>
<path fill="none" stroke="grey" stroke-width="2" d="M806.72,-144.5C777.52,-135.08 740.54,-123.15 708.91,-112.95"/>
<polygon fill="grey" stroke="grey" stroke-width="2" points="710.1,-109.65 699.51,-109.91 707.95,-116.32 710.1,-109.65"/>
</g>
<!-- 19 -->
<g id="node20" class="node">
<title>19</title>
<path fill="none" stroke="#5682d8" stroke-width="2" d="M949.88,-108C949.88,-108 765.88,-108 765.88,-108 759.88,-108 753.88,-102 753.88,-96 753.88,-96 753.88,-84 753.88,-84 753.88,-78 759.88,-72 765.88,-72 765.88,-72 949.88,-72 949.88,-72 955.88,-72 961.88,-78 961.88,-84 961.88,-84 961.88,-96 961.88,-96 961.88,-102 955.88,-108 949.88,-108"/>
<text text-anchor="middle" x="857.88" y="-87.62" font-family="sans" font-size="10.00">estimation_er_mean_per_len_sparse_plot</text>
</g>
<!-- 6&#45;&gt;19 -->
<g id="edge36" class="edge">
<title>6&#45;&gt;19</title>
<path fill="none" stroke="grey" stroke-width="2" d="M857.88,-143.34C857.88,-136.75 857.88,-129.08 857.88,-121.67"/>
<polygon fill="grey" stroke="grey" stroke-width="2" points="861.38,-121.93 857.88,-111.93 854.38,-121.93 861.38,-121.93"/>
</g>
<!-- 20 -->
<g id="node21" class="node">
<title>20</title>
<path fill="none" stroke="#70d856" stroke-width="2" d="M1140.25,-108C1140.25,-108 991.5,-108 991.5,-108 985.5,-108 979.5,-102 979.5,-96 979.5,-96 979.5,-84 979.5,-84 979.5,-78 985.5,-72 991.5,-72 991.5,-72 1140.25,-72 1140.25,-72 1146.25,-72 1152.25,-78 1152.25,-84 1152.25,-84 1152.25,-96 1152.25,-96 1152.25,-102 1146.25,-108 1140.25,-108"/>
<text text-anchor="middle" x="1065.88" y="-87.62" font-family="sans" font-size="10.00">estimation_er_mean_per_len_plot</text>
</g>
<!-- 6&#45;&gt;20 -->
<g id="edge37" class="edge">
<title>6&#45;&gt;20</title>
<path fill="none" stroke="grey" stroke-width="2" d="M909.02,-143.79C936.6,-134.51 970.93,-122.95 1000.43,-113.02"/>
<polygon fill="grey" stroke="grey" stroke-width="2" points="1001.52,-116.35 1009.88,-109.84 999.28,-109.72 1001.52,-116.35"/>
</g>
<!-- 7&#45;&gt;0 -->
<g id="edge11" class="edge">
<title>7&#45;&gt;0</title>
<path fill="none" stroke="grey" stroke-width="2" d="M1305.27,-71.06C1267.42,-58.85 1218.18,-42.97 1184.09,-31.97"/>
<polygon fill="grey" stroke="grey" stroke-width="2" points="1185.3,-28.68 1174.71,-28.95 1183.15,-35.35 1185.3,-28.68"/>
</g>
<!-- 8&#45;&gt;0 -->
<g id="edge3" class="edge">
<title>8&#45;&gt;0</title>
<path fill="none" stroke="grey" stroke-width="2" d="M343.21,-75.42C347.42,-74.08 351.71,-72.89 355.88,-72 500.89,-41 963.39,-24.55 1103.36,-20.19"/>
<polygon fill="grey" stroke="grey" stroke-width="2" points="1103.33,-23.69 1113.22,-19.89 1103.12,-16.7 1103.33,-23.69"/>
</g>
<!-- 9&#45;&gt;2 -->
<g id="edge20" class="edge">
<title>9&#45;&gt;2</title>
<path fill="none" stroke="grey" stroke-width="2" d="M648.57,-222.25C639.12,-220.08 629.19,-217.89 619.88,-216 539.45,-199.71 446.53,-184.11 384.17,-174.11"/>
<polygon fill="grey" stroke="grey" stroke-width="2" points="384.76,-170.66 374.33,-172.54 383.66,-177.57 384.76,-170.66"/>
</g>
<!-- 10 -->
<g id="node11" class="node">
<title>10</title>
<path fill="none" stroke="#d86656" stroke-width="2" d="M539.12,-180C539.12,-180 482.62,-180 482.62,-180 476.62,-180 470.62,-174 470.62,-168 470.62,-168 470.62,-156 470.62,-156 470.62,-150 476.62,-144 482.62,-144 482.62,-144 539.12,-144 539.12,-144 545.12,-144 551.12,-150 551.12,-156 551.12,-156 551.12,-168 551.12,-168 551.12,-174 545.12,-180 539.12,-180"/>
<text text-anchor="middle" x="510.88" y="-159.62" font-family="sans" font-size="10.00">time_exp_plot</text>
</g>
<!-- 10&#45;&gt;0 -->
<g id="edge4" class="edge">
<title>10&#45;&gt;0</title>
<path fill="none" stroke="grey" stroke-width="2" d="M469.65,-154.94C441.68,-148.45 406.67,-135.13 388.88,-108 380.1,-94.62 377.96,-83.7 388.88,-72 437.8,-19.52 952.9,-18.01 1103.03,-18.7"/>
<polygon fill="grey" stroke="grey" stroke-width="2" points="1102.95,-22.2 1112.97,-18.75 1102.99,-15.2 1102.95,-22.2"/>
</g>
<!-- 11&#45;&gt;10 -->
<g id="edge27" class="edge">
<title>11&#45;&gt;10</title>
<path fill="none" stroke="grey" stroke-width="2" d="M764.09,-221.84C758.1,-219.77 751.82,-217.72 745.88,-216 684.41,-198.25 612.49,-182.79 564.56,-173.22"/>
<polygon fill="grey" stroke="grey" stroke-width="2" points="565.46,-169.83 554.97,-171.32 564.11,-176.7 565.46,-169.83"/>
</g>
<!-- 12 -->
<g id="node13" class="node">
<title>12</title>
<path fill="none" stroke="#5663d8" stroke-width="2" d="M2306.5,-108C2306.5,-108 2177.25,-108 2177.25,-108 2171.25,-108 2165.25,-102 2165.25,-96 2165.25,-96 2165.25,-84 2165.25,-84 2165.25,-78 2171.25,-72 2177.25,-72 2177.25,-72 2306.5,-72 2306.5,-72 2312.5,-72 2318.5,-78 2318.5,-84 2318.5,-84 2318.5,-96 2318.5,-96 2318.5,-102 2312.5,-108 2306.5,-108"/>
<text text-anchor="middle" x="2241.88" y="-87.62" font-family="sans" font-size="10.00">plot_realworld_exp_error_iter</text>
</g>
<!-- 12&#45;&gt;0 -->
<g id="edge16" class="edge">
<title>12&#45;&gt;0</title>
<path fill="none" stroke="grey" stroke-width="2" d="M2164.59,-73.05C2161.99,-72.67 2159.41,-72.32 2156.88,-72 1781.03,-24.84 1321.66,-19.51 1184.43,-19.01"/>
<polygon fill="grey" stroke="grey" stroke-width="2" points="1184.84,-15.52 1174.83,-18.99 1184.82,-22.52 1184.84,-15.52"/>
</g>
<!-- 13&#45;&gt;12 -->
<g id="edge29" class="edge">
<title>13&#45;&gt;12</title>
<path fill="none" stroke="grey" stroke-width="2" d="M2187.3,-143.34C2195.36,-135.6 2205,-126.36 2213.92,-117.81"/>
<polygon fill="grey" stroke="grey" stroke-width="2" points="2216.23,-120.44 2221.02,-111 2211.38,-115.39 2216.23,-120.44"/>
</g>
<!-- 14 -->
<g id="node15" class="node">
<title>14</title>
<path fill="none" stroke="#56d0d8" stroke-width="2" d="M2206.88,-252C2206.88,-252 2130.88,-252 2130.88,-252 2124.88,-252 2118.88,-246 2118.88,-240 2118.88,-240 2118.88,-228 2118.88,-228 2118.88,-222 2124.88,-216 2130.88,-216 2130.88,-216 2206.88,-216 2206.88,-216 2212.88,-216 2218.88,-222 2218.88,-228 2218.88,-228 2218.88,-240 2218.88,-240 2218.88,-246 2212.88,-252 2206.88,-252"/>
<text text-anchor="middle" x="2168.88" y="-231.62" font-family="sans" font-size="10.00">process_tntp_data</text>
</g>
<!-- 14&#45;&gt;13 -->
<g id="edge31" class="edge">
<title>14&#45;&gt;13</title>
<path fill="none" stroke="grey" stroke-width="2" d="M2168.88,-215.34C2168.88,-208.75 2168.88,-201.08 2168.88,-193.67"/>
<polygon fill="grey" stroke="grey" stroke-width="2" points="2172.38,-193.93 2168.88,-183.93 2165.38,-193.93 2172.38,-193.93"/>
</g>
<!-- 15 -->
<g id="node16" class="node">
<title>15</title>
<path fill="none" stroke="#8fd856" stroke-width="2" d="M2218.88,-324C2218.88,-324 2118.88,-324 2118.88,-324 2112.88,-324 2106.88,-318 2106.88,-312 2106.88,-312 2106.88,-300 2106.88,-300 2106.88,-294 2112.88,-288 2118.88,-288 2118.88,-288 2218.88,-288 2218.88,-288 2224.88,-288 2230.88,-294 2230.88,-300 2230.88,-300 2230.88,-312 2230.88,-312 2230.88,-318 2224.88,-324 2218.88,-324"/>
<text text-anchor="middle" x="2168.88" y="-303.62" font-family="sans" font-size="10.00">download_tntp_dataset</text>
</g>
<!-- 15&#45;&gt;14 -->
<g id="edge32" class="edge">
<title>15&#45;&gt;14</title>
<path fill="none" stroke="grey" stroke-width="2" d="M2168.88,-287.34C2168.88,-280.75 2168.88,-273.08 2168.88,-265.67"/>
<polygon fill="grey" stroke="grey" stroke-width="2" points="2172.38,-265.93 2168.88,-255.93 2165.38,-265.93 2172.38,-265.93"/>
</g>
<!-- 16&#45;&gt;0 -->
<g id="edge15" class="edge">
<title>16&#45;&gt;0</title>
<path fill="none" stroke="grey" stroke-width="2" d="M92.49,-73.73C95.31,-73.07 98.12,-72.49 100.88,-72 298.72,-36.96 935.76,-22.87 1103.23,-19.71"/>
<polygon fill="grey" stroke="grey" stroke-width="2" points="1103.04,-23.22 1112.98,-19.53 1102.91,-16.22 1103.04,-23.22"/>
</g>
<!-- 17&#45;&gt;0 -->
<g id="edge7" class="edge">
<title>17&#45;&gt;0</title>
<path fill="none" stroke="grey" stroke-width="2" d="M528.15,-73.49C531.09,-72.95 534.01,-72.45 536.88,-72 748.44,-38.63 1005.06,-24.89 1103.11,-20.61"/>
<polygon fill="grey" stroke="grey" stroke-width="2" points="1103.01,-24.11 1112.85,-20.19 1102.71,-17.12 1103.01,-24.11"/>
</g>
<!-- 18&#45;&gt;0 -->
<g id="edge10" class="edge">
<title>18&#45;&gt;0</title>
<path fill="none" stroke="grey" stroke-width="2" d="M737.18,-73.15C739.77,-72.76 742.34,-72.38 744.88,-72 875.73,-52.62 1031.23,-32.92 1103.38,-23.97"/>
<polygon fill="grey" stroke="grey" stroke-width="2" points="1103.76,-27.45 1113.26,-22.75 1102.9,-20.5 1103.76,-27.45"/>
</g>
<!-- 19&#45;&gt;0 -->
<g id="edge14" class="edge">
<title>19&#45;&gt;0</title>
<path fill="none" stroke="grey" stroke-width="2" d="M931.16,-71.06C985.87,-57.67 1058.61,-39.87 1103.29,-28.93"/>
<polygon fill="grey" stroke="grey" stroke-width="2" points="1104.11,-32.34 1112.99,-26.56 1102.44,-25.54 1104.11,-32.34"/>
</g>
<!-- 20&#45;&gt;0 -->
<g id="edge12" class="edge">
<title>20&#45;&gt;0</title>
<path fill="none" stroke="grey" stroke-width="2" d="M1085.56,-71.34C1094.27,-63.52 1104.69,-54.16 1114.31,-45.53"/>
<polygon fill="grey" stroke="grey" stroke-width="2" points="1116.57,-48.21 1121.67,-38.92 1111.89,-43 1116.57,-48.21"/>
</g>
<!-- 21&#45;&gt;2 -->
<g id="edge18" class="edge">
<title>21&#45;&gt;2</title>
<path fill="none" stroke="grey" stroke-width="2" d="M371.94,-215.34C363.12,-207.52 352.56,-198.16 342.82,-189.53"/>
<polygon fill="grey" stroke="grey" stroke-width="2" points="345.15,-186.92 335.34,-182.91 340.51,-192.16 345.15,-186.92"/>
</g>
<!-- 22 -->
<g id="node23" class="node">
<title>22</title>
<path fill="none" stroke="#d8d356" stroke-width="2" d="M1584.88,-108C1584.88,-108 1460.88,-108 1460.88,-108 1454.88,-108 1448.88,-102 1448.88,-96 1448.88,-96 1448.88,-84 1448.88,-84 1448.88,-78 1454.88,-72 1460.88,-72 1460.88,-72 1584.88,-72 1584.88,-72 1590.88,-72 1596.88,-78 1596.88,-84 1596.88,-84 1596.88,-96 1596.88,-96 1596.88,-102 1590.88,-108 1584.88,-108"/>
<text text-anchor="middle" x="1522.88" y="-87.62" font-family="sans" font-size="10.00">estimation_sbm_approx_plot</text>
</g>
<!-- 22&#45;&gt;0 -->
<g id="edge8" class="edge">
<title>22&#45;&gt;0</title>
<path fill="none" stroke="grey" stroke-width="2" d="M1448.24,-73.62C1445.41,-73.07 1442.62,-72.53 1439.88,-72 1348.74,-54.51 1241.46,-35.76 1184.39,-25.93"/>
<polygon fill="grey" stroke="grey" stroke-width="2" points="1185.1,-22.5 1174.65,-24.25 1183.91,-29.4 1185.1,-22.5"/>
</g>
<!-- 23&#45;&gt;22 -->
<g id="edge39" class="edge">
<title>23&#45;&gt;22</title>
<path fill="none" stroke="grey" stroke-width="2" d="M1522.88,-143.34C1522.88,-136.75 1522.88,-129.08 1522.88,-121.67"/>
<polygon fill="grey" stroke="grey" stroke-width="2" points="1526.38,-121.93 1522.88,-111.93 1519.38,-121.93 1526.38,-121.93"/>
</g>
<!-- 24 -->
<g id="node25" class="node">
<title>24</title>
<path fill="none" stroke="#61d856" stroke-width="2" d="M1810.5,-108C1810.5,-108 1627.25,-108 1627.25,-108 1621.25,-108 1615.25,-102 1615.25,-96 1615.25,-96 1615.25,-84 1615.25,-84 1615.25,-78 1621.25,-72 1627.25,-72 1627.25,-72 1810.5,-72 1810.5,-72 1816.5,-72 1822.5,-78 1822.5,-84 1822.5,-84 1822.5,-96 1822.5,-96 1822.5,-102 1816.5,-108 1810.5,-108"/>
<text text-anchor="middle" x="1718.88" y="-87.62" font-family="sans" font-size="10.00">estimation_sbm_heterophilic_approx_plot</text>
</g>
<!-- 23&#45;&gt;24 -->
<g id="edge41" class="edge">
<title>23&#45;&gt;24</title>
<path fill="none" stroke="grey" stroke-width="2" d="M1573.1,-143.06C1598.57,-133.97 1629.75,-122.83 1656.72,-113.2"/>
<polygon fill="grey" stroke="grey" stroke-width="2" points="1657.69,-116.57 1665.93,-109.91 1655.34,-109.97 1657.69,-116.57"/>
</g>
<!-- 24&#45;&gt;0 -->
<g id="edge2" class="edge">
<title>24&#45;&gt;0</title>
<path fill="none" stroke="grey" stroke-width="2" d="M1614.53,-73.17C1611.62,-72.77 1608.73,-72.38 1605.88,-72 1450.59,-51.42 1265.3,-31.59 1184.69,-23.2"/>
<polygon fill="grey" stroke="grey" stroke-width="2" points="1185.1,-19.72 1174.79,-22.17 1184.37,-26.68 1185.1,-19.72"/>
</g>
<!-- 25 -->
<g id="node26" class="node">
<title>25</title>
<path fill="none" stroke="#56b1d8" stroke-width="2" d="M2135.38,-108C2135.38,-108 2068.38,-108 2068.38,-108 2062.38,-108 2056.38,-102 2056.38,-96 2056.38,-96 2056.38,-84 2056.38,-84 2056.38,-78 2062.38,-72 2068.38,-72 2068.38,-72 2135.38,-72 2135.38,-72 2141.38,-72 2147.38,-78 2147.38,-84 2147.38,-84 2147.38,-96 2147.38,-96 2147.38,-102 2141.38,-108 2135.38,-108"/>
<text text-anchor="middle" x="2101.88" y="-87.62" font-family="sans" font-size="10.00">plot_actual_num</text>
</g>
<!-- 25&#45;&gt;0 -->
<g id="edge5" class="edge">
<title>25&#45;&gt;0</title>
<path fill="none" stroke="grey" stroke-width="2" d="M2055.56,-73.82C2052.64,-73.13 2049.73,-72.52 2046.88,-72 1877.75,-41.36 1337.65,-24.37 1184.63,-20.09"/>
<polygon fill="grey" stroke="grey" stroke-width="2" points="1184.97,-16.6 1174.88,-19.82 1184.78,-23.59 1184.97,-16.6"/>
</g>
<!-- 26&#45;&gt;25 -->
<g id="edge42" class="edge">
<title>26&#45;&gt;25</title>
<path fill="none" stroke="grey" stroke-width="2" d="M1978.94,-143.15C1999.9,-134.26 2025.49,-123.41 2047.88,-113.91"/>
<polygon fill="grey" stroke="grey" stroke-width="2" points="2048.98,-117.24 2056.82,-110.12 2046.24,-110.8 2048.98,-117.24"/>
</g>
<!-- 27 -->
<g id="node28" class="node">
<title>27</title>
<path fill="none" stroke="#56d8b9" stroke-width="2" d="M1913.38,-108C1913.38,-108 1852.38,-108 1852.38,-108 1846.38,-108 1840.38,-102 1840.38,-96 1840.38,-96 1840.38,-84 1840.38,-84 1840.38,-78 1846.38,-72 1852.38,-72 1852.38,-72 1913.38,-72 1913.38,-72 1919.38,-72 1925.38,-78 1925.38,-84 1925.38,-84 1925.38,-96 1925.38,-96 1925.38,-102 1919.38,-108 1913.38,-108"/>
<text text-anchor="middle" x="1882.88" y="-87.62" font-family="sans" font-size="10.00">plot_homology</text>
</g>
<!-- 26&#45;&gt;27 -->
<g id="edge44" class="edge">
<title>26&#45;&gt;27</title>
<path fill="none" stroke="grey" stroke-width="2" d="M1923.25,-143.34C1917.6,-136.01 1910.91,-127.34 1904.61,-119.18"/>
<polygon fill="grey" stroke="grey" stroke-width="2" points="1907.41,-117.08 1898.53,-111.3 1901.87,-121.35 1907.41,-117.08"/>
</g>
<!-- 28 -->
<g id="node29" class="node">
<title>28</title>
<path fill="none" stroke="#d89556" stroke-width="2" d="M2025.88,-108C2025.88,-108 1955.88,-108 1955.88,-108 1949.88,-108 1943.88,-102 1943.88,-96 1943.88,-96 1943.88,-84 1943.88,-84 1943.88,-78 1949.88,-72 1955.88,-72 1955.88,-72 2025.88,-72 2025.88,-72 2031.88,-72 2037.88,-78 2037.88,-84 2037.88,-84 2037.88,-96 2037.88,-96 2037.88,-102 2031.88,-108 2025.88,-108"/>
<text text-anchor="middle" x="1990.88" y="-87.62" font-family="sans" font-size="10.00">plot_orientability</text>
</g>
<!-- 26&#45;&gt;28 -->
<g id="edge45" class="edge">
<title>26&#45;&gt;28</title>
<path fill="none" stroke="grey" stroke-width="2" d="M1950.5,-143.34C1956.15,-136.01 1962.84,-127.34 1969.14,-119.18"/>
<polygon fill="grey" stroke="grey" stroke-width="2" points="1971.88,-121.35 1975.22,-111.3 1966.34,-117.08 1971.88,-121.35"/>
</g>
<!-- 27&#45;&gt;0 -->
<g id="edge6" class="edge">
<title>27&#45;&gt;0</title>
<path fill="none" stroke="grey" stroke-width="2" d="M1839.39,-73.73C1836.86,-73.08 1834.35,-72.5 1831.88,-72 1590.01,-23.14 1291.97,-18.6 1184.72,-18.68"/>
<polygon fill="grey" stroke="grey" stroke-width="2" points="1184.75,-15.18 1174.76,-18.71 1184.77,-22.18 1184.75,-15.18"/>
</g>
<!-- 28&#45;&gt;0 -->
<g id="edge9" class="edge">
<title>28&#45;&gt;0</title>
<path fill="none" stroke="grey" stroke-width="2" d="M1943.09,-73.71C1940.33,-73.07 1937.57,-72.49 1934.88,-72 1651.29,-20.16 1302.23,-17.67 1184.69,-18.48"/>
<polygon fill="grey" stroke="grey" stroke-width="2" points="1184.83,-14.98 1174.86,-18.56 1184.89,-21.98 1184.83,-14.98"/>
</g>
</g>
</svg>
